<svg width="20" height="21" viewBox="0 0 20 21" fill="none" xmlns="http://www.w3.org/2000/svg">
<path d="M9.99926 20.5852C8.66478 20.5929 7.34311 20.3246 6.11725 19.7972C4.92923 19.2907 3.84888 18.562 2.93426 17.6502C2.02248 16.7356 1.29376 15.6552 0.787261 14.4672C0.259839 13.2414 -0.00844451 11.9197 -0.000741339 10.5852C-0.0100715 9.24797 0.258256 7.92335 0.787261 6.69518C1.29516 5.5103 2.02377 4.43284 2.93426 3.52019C3.8489 2.60841 4.92924 1.87972 6.11725 1.37322C7.34312 0.845824 8.66478 0.577519 9.99926 0.585193C11.3365 0.575921 12.6611 0.84427 13.8893 1.37322C15.0741 1.88116 16.1516 2.60974 17.0643 3.52019C17.9747 4.43284 18.7034 5.5103 19.2113 6.69518C19.7403 7.92335 20.0086 9.24797 19.9993 10.5852C20.007 11.9197 19.7387 13.2414 19.2113 14.4672C18.7048 15.6552 17.976 16.7356 17.0643 17.6502C16.1516 18.5607 15.0741 19.2892 13.8893 19.7972C12.6611 20.3261 11.3365 20.5945 9.99926 20.5852ZM9.99926 18.9852C10.5141 18.308 10.9678 17.5865 11.3553 16.8292C11.7365 16.0701 12.0381 15.2735 12.2553 14.4522H7.74926C7.97331 15.2851 8.27704 16.0945 8.65626 16.8692C9.031 17.6182 9.48099 18.3273 9.99926 18.9852ZM7.96126 18.6962C7.53466 18.0754 7.17056 17.4138 6.87426 16.7212C6.55512 15.9899 6.30439 15.2307 6.12526 14.4532H2.55426C3.0913 15.5229 3.85461 16.463 4.79126 17.2082C5.71637 17.9467 6.80288 18.4562 7.96226 18.6952L7.96126 18.6962ZM12.0383 18.6962C13.1974 18.4568 14.2835 17.9469 15.2083 17.2082C16.1449 16.463 16.9082 15.5229 17.4453 14.4532H13.8743C13.6634 15.231 13.3961 15.9924 13.0743 16.7312C12.7827 17.4128 12.4362 18.0696 12.0383 18.6952V18.6962ZM1.89226 12.8742H5.80526C5.73859 12.4829 5.69059 12.0992 5.66126 11.7232C5.63193 11.3472 5.61725 10.9679 5.61725 10.5852C5.61725 10.2032 5.63226 9.82417 5.66226 9.44817C5.69226 9.07217 5.74026 8.6885 5.80626 8.29717H1.89326C1.79023 8.66308 1.71239 9.03567 1.66026 9.41222C1.60606 9.80087 1.57899 10.1928 1.57926 10.5852C1.57904 10.9773 1.6061 11.3689 1.66026 11.7572C1.71238 12.1337 1.79022 12.5063 1.89326 12.8722L1.89226 12.8742ZM7.38426 12.8742H12.6153C12.6819 12.4829 12.7299 12.1025 12.7593 11.7332C12.7886 11.3639 12.8019 10.9812 12.7993 10.5852C12.7993 10.1899 12.7843 9.80755 12.7543 9.43822C12.7243 9.06889 12.6763 8.6885 12.6103 8.29717H7.37926C7.31259 8.6885 7.26459 9.06889 7.23526 9.43822C7.20593 9.80755 7.19392 10.1899 7.19926 10.5852C7.19926 10.9805 7.21426 11.3628 7.24426 11.7322C7.27426 12.1015 7.32126 12.4819 7.38526 12.8732L7.38426 12.8742ZM14.1943 12.8742H18.1073C18.2103 12.5083 18.2881 12.1358 18.3403 11.7592C18.3944 11.3709 18.4215 10.9793 18.4213 10.5872C18.4215 10.1951 18.3944 9.80353 18.3403 9.41521C18.2881 9.03866 18.2103 8.66613 18.1073 8.30022H14.1993C14.2659 8.69155 14.3139 9.07522 14.3433 9.45122C14.3726 9.82722 14.3876 10.2062 14.3883 10.5882C14.3883 10.9702 14.3733 11.3492 14.3433 11.7252C14.3133 12.1012 14.2653 12.4849 14.1993 12.8762L14.1943 12.8742ZM13.8743 6.7202H17.4453C16.9132 5.65159 16.155 4.71151 15.2233 3.9652C14.2907 3.22752 13.2009 2.71428 12.0383 2.4652C12.4551 3.10257 12.8154 3.77514 13.1153 4.47521C13.4292 5.20154 13.683 5.95238 13.8743 6.7202ZM7.74626 6.7202H12.2523C12.0238 5.8818 11.715 5.06736 11.3303 4.2882C10.9589 3.54395 10.513 2.83931 9.99926 2.18517C9.48572 2.83836 9.03977 3.542 8.66826 4.28521C8.28367 5.06537 7.97424 5.88081 7.74626 6.7202ZM2.55426 6.7202H6.12526C6.31659 5.95307 6.57044 5.20291 6.88426 4.47722C7.18407 3.77715 7.54444 3.10459 7.96126 2.46721C6.79599 2.71308 5.70389 3.22661 4.77126 3.96721C3.84446 4.71608 3.08783 5.6548 2.55426 6.7202Z" fill="url(#paint0_linear_13_757)"/>
<path d="M9.99926 20.5852C8.66478 20.5929 7.34311 20.3246 6.11725 19.7972C4.92923 19.2907 3.84888 18.562 2.93426 17.6502C2.02248 16.7356 1.29376 15.6552 0.787261 14.4672C0.259839 13.2414 -0.00844451 11.9197 -0.000741339 10.5852C-0.0100715 9.24797 0.258256 7.92335 0.787261 6.69518C1.29516 5.5103 2.02377 4.43284 2.93426 3.52019C3.8489 2.60841 4.92924 1.87972 6.11725 1.37322C7.34312 0.845824 8.66478 0.577519 9.99926 0.585193C11.3365 0.575921 12.6611 0.84427 13.8893 1.37322C15.0741 1.88116 16.1516 2.60974 17.0643 3.52019C17.9747 4.43284 18.7034 5.5103 19.2113 6.69518C19.7403 7.92335 20.0086 9.24797 19.9993 10.5852C20.007 11.9197 19.7387 13.2414 19.2113 14.4672C18.7048 15.6552 17.976 16.7356 17.0643 17.6502C16.1516 18.5607 15.0741 19.2892 13.8893 19.7972C12.6611 20.3261 11.3365 20.5945 9.99926 20.5852ZM9.99926 18.9852C10.5141 18.308 10.9678 17.5865 11.3553 16.8292C11.7365 16.0701 12.0381 15.2735 12.2553 14.4522H7.74926C7.97331 15.2851 8.27704 16.0945 8.65626 16.8692C9.031 17.6182 9.48099 18.3273 9.99926 18.9852ZM7.96126 18.6962C7.53466 18.0754 7.17056 17.4138 6.87426 16.7212C6.55512 15.9899 6.30439 15.2307 6.12526 14.4532H2.55426C3.0913 15.5229 3.85461 16.463 4.79126 17.2082C5.71637 17.9467 6.80288 18.4562 7.96226 18.6952L7.96126 18.6962ZM12.0383 18.6962C13.1974 18.4568 14.2835 17.9469 15.2083 17.2082C16.1449 16.463 16.9082 15.5229 17.4453 14.4532H13.8743C13.6634 15.231 13.3961 15.9924 13.0743 16.7312C12.7827 17.4128 12.4362 18.0696 12.0383 18.6952V18.6962ZM1.89226 12.8742H5.80526C5.73859 12.4829 5.69059 12.0992 5.66126 11.7232C5.63193 11.3472 5.61725 10.9679 5.61725 10.5852C5.61725 10.2032 5.63226 9.82417 5.66226 9.44817C5.69226 9.07217 5.74026 8.6885 5.80626 8.29717H1.89326C1.79023 8.66308 1.71239 9.03567 1.66026 9.41222C1.60606 9.80087 1.57899 10.1928 1.57926 10.5852C1.57904 10.9773 1.6061 11.3689 1.66026 11.7572C1.71238 12.1337 1.79022 12.5063 1.89326 12.8722L1.89226 12.8742ZM7.38426 12.8742H12.6153C12.6819 12.4829 12.7299 12.1025 12.7593 11.7332C12.7886 11.3639 12.8019 10.9812 12.7993 10.5852C12.7993 10.1899 12.7843 9.80755 12.7543 9.43822C12.7243 9.06889 12.6763 8.6885 12.6103 8.29717H7.37926C7.31259 8.6885 7.26459 9.06889 7.23526 9.43822C7.20593 9.80755 7.19392 10.1899 7.19926 10.5852C7.19926 10.9805 7.21426 11.3628 7.24426 11.7322C7.27426 12.1015 7.32126 12.4819 7.38526 12.8732L7.38426 12.8742ZM14.1943 12.8742H18.1073C18.2103 12.5083 18.2881 12.1358 18.3403 11.7592C18.3944 11.3709 18.4215 10.9793 18.4213 10.5872C18.4215 10.1951 18.3944 9.80353 18.3403 9.41521C18.2881 9.03866 18.2103 8.66613 18.1073 8.30022H14.1993C14.2659 8.69155 14.3139 9.07522 14.3433 9.45122C14.3726 9.82722 14.3876 10.2062 14.3883 10.5882C14.3883 10.9702 14.3733 11.3492 14.3433 11.7252C14.3133 12.1012 14.2653 12.4849 14.1993 12.8762L14.1943 12.8742ZM13.8743 6.7202H17.4453C16.9132 5.65159 16.155 4.71151 15.2233 3.9652C14.2907 3.22752 13.2009 2.71428 12.0383 2.4652C12.4551 3.10257 12.8154 3.77514 13.1153 4.47521C13.4292 5.20154 13.683 5.95238 13.8743 6.7202ZM7.74626 6.7202H12.2523C12.0238 5.8818 11.715 5.06736 11.3303 4.2882C10.9589 3.54395 10.513 2.83931 9.99926 2.18517C9.48572 2.83836 9.03977 3.542 8.66826 4.28521C8.28367 5.06537 7.97424 5.88081 7.74626 6.7202ZM2.55426 6.7202H6.12526C6.31659 5.95307 6.57044 5.20291 6.88426 4.47722C7.18407 3.77715 7.54444 3.10459 7.96126 2.46721C6.79599 2.71308 5.70389 3.22661 4.77126 3.96721C3.84446 4.71608 3.08783 5.6548 2.55426 6.7202Z" fill="url(#paint1_linear_13_757)"/>
<defs>
<linearGradient id="paint0_linear_13_757" x1="-0.000976562" y1="10.5852" x2="19.9995" y2="10.5852" gradientUnits="userSpaceOnUse">
<stop stop-color="#FF5300"/>
<stop offset="0.16" stop-color="#FB5103"/>
<stop offset="0.31" stop-color="#F04C0F"/>
<stop offset="0.46" stop-color="#DE4322"/>
<stop offset="0.61" stop-color="#C5363C"/>
<stop offset="0.75" stop-color="#A4265F"/>
<stop offset="0.9" stop-color="#7C1389"/>
<stop offset="1" stop-color="#5B03AD"/>
</linearGradient>
<linearGradient id="paint1_linear_13_757" x1="-0.000976562" y1="10.5852" x2="19.9995" y2="10.5852" gradientUnits="userSpaceOnUse">
<stop stop-color="#004C92"/>
<stop offset="1" stop-color="#FF0009"/>
</linearGradient>
</defs>
</svg>
